<?xml version="1.0" encoding="UTF-8" standalone="no"?>
<!-- Generator: Adobe Illustrator 24.1.2, SVG Export Plug-In . SVG Version: 6.00 Build 0)  -->

<svg
   version="1.1"
   x="0px"
   y="0px"
   viewBox="0 0 100 100"
   style="enable-background:new 0 0 100 100;"
   xml:space="preserve"
   id="svg9"
   sodipodi:docname="beaker.svg"
   inkscape:version="1.3 (0e150ed6c4, 2023-07-21)"
   xmlns:inkscape="http://www.inkscape.org/namespaces/inkscape"
   xmlns:sodipodi="http://sodipodi.sourceforge.net/DTD/sodipodi-0.dtd"
   xmlns="http://www.w3.org/2000/svg"
   xmlns:svg="http://www.w3.org/2000/svg"><defs
   id="defs9" /><sodipodi:namedview
   id="namedview9"
   pagecolor="#ffffff"
   bordercolor="#000000"
   borderopacity="0.25"
   inkscape:showpageshadow="2"
   inkscape:pageopacity="0.0"
   inkscape:pagecheckerboard="0"
   inkscape:deskcolor="#d1d1d1"
   inkscape:zoom="4.3027448"
   inkscape:cx="11.736694"
   inkscape:cy="68.444682"
   inkscape:window-width="2240"
   inkscape:window-height="1294"
   inkscape:window-x="-11"
   inkscape:window-y="-11"
   inkscape:window-maximized="1"
   inkscape:current-layer="svg9" />&#10;<style
   type="text/css"
   id="style1">&#10;	.st0{fill:none;stroke:#FFFFFF;stroke-miterlimit:10;}&#10;	.st1{fill:#B5B5B6;}&#10;	.st2{fill:#5FB5DC;}&#10;	.st3{fill:#F4D050;}&#10;	.st4{fill:#818082;}&#10;</style>&#10;&#10;&#10;&#10;<path
   style="fill:#0e99c9;fill-opacity:1;stroke:none;stroke-width:0.507715;stroke-linecap:square"
   d="m 29.426412,89.788239 c -5.833996,-1.360075 -9.44101,-7.83935 -7.981784,-14.337672 0.307907,-1.371187 0.939956,-2.791325 2.700456,-6.067589 l 1.402478,-2.609992 1.000165,0.446077 c 2.09101,0.932595 4.649468,1.724465 6.987117,2.162587 1.89348,0.354874 5.453603,0.325254 7.323725,-0.06094 3.368931,-0.6957 6.040947,-1.912915 9.914388,-4.516419 2.936889,-1.974005 6.100043,-3.414982 8.901035,-4.054867 1.179725,-0.269508 1.724232,-0.312613 3.929803,-0.311088 1.930438,0.0013 2.83865,0.06034 3.691635,0.239857 1.251882,0.263461 3.218229,0.803613 4.054212,1.113686 l 0.541205,0.200737 2.555003,4.760109 c 3.245344,6.04625 3.48328,6.533721 3.948298,8.089037 0.371734,1.243316 0.38427,1.358064 0.38427,3.517509 0,2.150985 -0.01383,2.279064 -0.379847,3.51751 -0.975463,3.300558 -3.282952,6.115898 -5.979557,7.295586 -1.982073,0.867102 -0.757375,0.823016 -22.475197,0.809032 -15.956065,-0.01027 -19.891835,-0.04733 -20.517405,-0.193164 z"
   id="path2" /><path
   id="path4-4"
   style="fill:none;stroke:#000000;stroke-width:2;stroke-linecap:round;stroke-dasharray:none"
   d="m 58.295445,40.37134 19.23614,31.55265 M 58.295445,14.60374 v 25.76758 m 19.96289,32.94923 c -0.21933,-0.47903 -0.47258,-0.9418 -0.75782,-1.38476 m -9.31054,17.05078 c 0.52672,3.9e-4 1.0528,-0.0368 1.57422,-0.11133 0.52166,-0.0751 1.03729,-0.18737 1.54296,-0.33594 0.50603,-0.14873 1.00078,-0.33345 1.48047,-0.55273 0.47965,-0.21861 0.94307,-0.47121 1.38672,-0.75586 0.44324,-0.28526 0.86554,-0.60183 1.26367,-0.94727 0.39846,-0.34468 0.77181,-0.71737 1.11719,-1.11523 0.34484,-0.39882 0.66075,-0.82178 0.94531,-1.26563 0.28524,-0.44296 0.53849,-0.90573 0.75782,-1.38476 0.21862,-0.47974 0.40268,-0.97449 0.55078,-1.48047 0.14857,-0.50567 0.26083,-1.0213 0.33593,-1.54297 0.0753,-0.52202 0.11313,-1.04875 0.11329,-1.57617 -2.6e-4,-0.52677 -0.0381,-1.05284 -0.11329,-1.57422 -0.0751,-0.52167 -0.18736,-1.0373 -0.33593,-1.54297 -0.1481,-0.50598 -0.33216,-1.00073 -0.55078,-1.48047 M 41.704555,40.37134 22.468415,71.92399 m 19.23614,-57.32025 v 25.76758 m -19.96289,32.94923 c 0.21933,-0.47903 0.47258,-0.9418 0.75782,-1.38476 m -0.75782,1.38476 c -0.21862,0.47974 -0.40268,0.97449 -0.55078,1.48047 -0.14857,0.50567 -0.26083,1.0213 -0.33593,1.54297 -0.0752,0.52138 -0.11303,1.04745 -0.11329,1.57422 1.6e-4,0.52742 0.038,1.05415 0.11329,1.57617 0.0751,0.52167 0.18736,1.0373 0.33593,1.54297 0.1481,0.50598 0.33216,1.00073 0.55078,1.48047 0.21933,0.47903 0.47258,0.9418 0.75782,1.38476 0.28456,0.44385 0.60047,0.86681 0.94531,1.26563 0.34538,0.39786 0.71873,0.77055 1.11719,1.11523 0.39813,0.34544 0.82043,0.66201 1.26367,0.94727 0.44365,0.28465 0.90707,0.53725 1.38672,0.75586 0.47969,0.21928 0.97444,0.404 1.48047,0.55273 0.50567,0.14857 1.0213,0.26084 1.54296,0.33594 0.52142,0.0745 1.0475,0.11172 1.57422,0.11133 h 36.37995 M 41.704555,14.60374 h 16.59089" /><path
   style="fill:none;stroke:#000000;stroke-width:2;stroke-linecap:round;stroke-dasharray:none"
   d="m 25.689127,66.641127 c 7.98931,3.339368 15.21019,4.389395 24.08447,-1.033776 8.87428,-5.423172 15.5822,-4.839637 22.28444,-2.661502"
   id="path15"
   sodipodi:nodetypes="csc" /><path
   style="fill:none;stroke:#000000;stroke-width:2;stroke-linecap:round;stroke-dasharray:none"
   d="m 55.08115,14.60374 h 6.42859"
   id="path16" /><path
   style="fill:none;stroke:#000000;stroke-width:2;stroke-linecap:round;stroke-dasharray:none"
   d="m 38.49026,14.60374 h 6.42859"
   id="path16-2" /><circle
   style="fill:#ffffff;fill-opacity:1;stroke:none;stroke-width:0.0515086;stroke-linecap:round;stroke-dasharray:none;stroke-opacity:1"
   id="path18-5"
   cx="58.757072"
   cy="82.248138"
   r="1.9751359" /><circle
   style="fill:#ffffff;fill-opacity:1;stroke:none;stroke-width:0.0515086;stroke-linecap:round;stroke-dasharray:none;stroke-opacity:1"
   id="path18-5-6"
   cx="37.727009"
   cy="74.089958"
   r="1.9751359" /><circle
   style="fill:#ffffff;fill-opacity:1;stroke:none;stroke-width:0.0714332;stroke-linecap:round;stroke-dasharray:none;stroke-opacity:1"
   id="path18-5-4"
   cx="63.471367"
   cy="69.274078"
   r="2.7391593" /><circle
   style="fill:#ffffff;fill-opacity:1;stroke:none;stroke-width:0.0714332;stroke-linecap:round;stroke-dasharray:none;stroke-opacity:1"
   id="path18-5-4-5"
   cx="72.440643"
   cy="78.12561"
   r="2.7391593" /><circle
   style="fill:#ffffff;fill-opacity:1;stroke:none;stroke-width:0.0257543;stroke-linecap:round;stroke-dasharray:none;stroke-opacity:1"
   id="path18-5-0"
   cx="35.171021"
   cy="83.23571"
   r="0.9875679" /><circle
   style="fill:#ffffff;fill-opacity:1;stroke:none;stroke-width:0.0257543;stroke-linecap:round;stroke-dasharray:none;stroke-opacity:1"
   id="path18-5-0-2"
   cx="29.069738"
   cy="75.344185"
   r="0.9875679" /><circle
   style="fill:#ffffff;fill-opacity:1;stroke:none;stroke-width:0.0257543;stroke-linecap:round;stroke-dasharray:none;stroke-opacity:1"
   id="path18-5-0-5"
   cx="65.216843"
   cy="77.138046"
   r="0.9875679" /><circle
   style="fill:#ffffff;fill-opacity:1;stroke:none;stroke-width:0.0257543;stroke-linecap:round;stroke-dasharray:none;stroke-opacity:1"
   id="path18-5-0-9"
   cx="50.907692"
   cy="84.223274"
   r="0.9875679" /><circle
   style="fill:#ffffff;fill-opacity:1;stroke:none;stroke-width:0.0257543;stroke-linecap:round;stroke-dasharray:none;stroke-opacity:1"
   id="path18-5-0-3"
   cx="53.672756"
   cy="78.125618"
   r="0.9875679" /><circle
   style="fill:#ffffff;fill-opacity:1;stroke:none;stroke-width:0.0515086;stroke-linecap:round;stroke-dasharray:none;stroke-opacity:1"
   id="path18-5-60"
   cx="53.672756"
   cy="72.114822"
   r="1.9751359" /><circle
   style="fill:#ffffff;fill-opacity:1;stroke:none;stroke-width:0.0515086;stroke-linecap:round;stroke-dasharray:none;stroke-opacity:1"
   id="path18-5-60-8"
   cx="27.39831"
   cy="81.803391"
   r="1.9751359" /><circle
   style="fill:#ffffff;fill-opacity:1;stroke:none;stroke-width:0.0770734;stroke-linecap:round;stroke-dasharray:none;stroke-opacity:1"
   id="path18-5-5"
   cx="46.529758"
   cy="79.292702"
   r="2.9554384" /><path
   style="fill:#ffffff;stroke:none;stroke-width:0.328677;stroke-linecap:square"
   d="m 36.113393,68.318653 c -2.323363,-0.142185 -4.915309,-0.731898 -7.7983,-1.774251 -0.569193,-0.205793 -1.04546,-0.383965 -1.058373,-0.395937 -0.01291,-0.01197 3.369145,-5.58228 7.515682,-12.37846 4.146538,-6.796182 7.642106,-12.556029 7.76793,-12.799662 l 0.228772,-0.442968 V 28.09031 15.653246 H 50 57.230895 l 0.0018,12.428101 c 0.0017,11.954645 0.0076,12.440623 0.155076,12.756779 0.0843,0.180773 2.892796,4.819081 6.241104,10.307352 3.348308,5.488271 6.079163,9.987343 6.068568,9.997939 -0.0106,0.0106 -0.240816,-0.03353 -0.511602,-0.09805 -0.908725,-0.216527 -2.78386,-0.516502 -3.851197,-0.616096 -1.31848,-0.123028 -4.117626,-0.05522 -5.309999,0.12863 -3.506632,0.540686 -6.741325,1.767162 -10.507487,3.984049 -3.473682,2.044725 -5.741344,2.964621 -8.620129,3.496829 -0.860401,0.159064 -3.515801,0.412524 -3.71544,0.354641 -0.0226,-0.0066 -0.503287,-0.0402 -1.068201,-0.07477 z"
   id="path1" /></svg>
