<?xml version="1.0" standalone="yes"?>
<!DOCTYPE svg PUBLIC "-//W3C//DTD SVG 1.1//EN" "http://www.w3.org/Graphics/SVG/1.1/DTD/svg11.dtd"[
<!ENTITY E3 'stroke:none;opacity:1;fill:rgb(68,154,223);'><!ENTITY E11 'matrix(1.00 0.00 0.00 1.00 404.00 84.00 ) '><!ENTITY E17 'matrix(1.00 0.00 0.00 1.00 244.00 84.00 ) '><!ENTITY E10 'matrix(1.00 0.00 0.00 1.00 0.00 0.00 ) '><!ENTITY E5 'stroke:none;fill-rule:evenodd;opacity:1;fill:rgb(255,255,255);'><!ENTITY E7 'M 5.5001 19.484 10.6493 19.484 16.2743 10.2485 19.3728 10.2485 M 14.6769 17.1481 16.3089 19.4828 19.2202 19.4828 M 5.500199 10.2437 10.7586 10.2437 12.1652 12.8707 '><!ENTITY E4 'M 19.156 13.888 19.156 10.3647 19.156 6.841399 25.2585 10.3647 22.2072 12.1264 z '><!ENTITY E6 'M 19.156 22.97 19.156 19.4467 19.156 15.9234 25.2585 19.4467 22.2072 21.2084 z '><!ENTITY E8 'stroke:rgb(255,255,255);fill:none;stroke-linecap:butt;stroke-miterlimit:9;opacity:1;stroke-width:2;stroke-linejoin:miter;'><!ENTITY E26 'matrix(1.00 0.00 0.00 1.00 4.00 4.00 ) '><!ENTITY E22 'matrix(1.00 0.00 0.00 1.00 84.00 84.00 ) '><!ENTITY E19 'matrix(1.00 0.00 0.00 1.00 164.00 84.00 ) '><!ENTITY E15 'matrix(1.00 0.00 0.00 1.00 324.00 84.00 ) '><!ENTITY E2 'matrix(1.00 0.00 0.00 1.00 404.00 4.00 ) '><!ENTITY E1 'stroke:rgb(169,169,169);fill:none;stroke-linecap:butt;stroke-miterlimit:9;opacity:1;stroke-width:1;stroke-linejoin:miter;'><!ENTITY E12 'M 20.824 23.115 20.824 7.098999 M 17.3572 17.48 17.3572 12.7339 M 13.8904 21.2046 13.8904 9.009602 M 10.4236 18.6248 10.4236 11.5896 M 6.9568 16.3923 6.9568 13.822 '>
]>
<svg width="462.195" height="146.6504" id="SvgGdi_output" xmlns="http://www.w3.org/2000/svg" xmlns:xlink="http://www.w3.org/1999/xlink">
  <style>text { fill: #000; } @media (prefers-color-scheme: dark) { text { fill: #eee; } }</style>
  <rect id="background" height="100.00%" style="fill:none;" width="100.00%" y="0.00" x="0.00" />
  <g style="shape-rendering:auto;" id="root_group">
    <line y1="19.00" style="stroke:rgb(169,169,169);fill:none;stroke-linecap:butt;stroke-miterlimit:9;opacity:1;stroke-width:1;stroke-linejoin:miter;" id="2" x2="400.00" y2="19.00" x1="358.00" />
    <line y1="99.00" style="stroke:rgb(169,169,169);fill:none;stroke-linecap:butt;stroke-miterlimit:9;opacity:1;stroke-width:1;stroke-linejoin:miter;" id="3" x2="400.00" y2="99.00" x1="358.00" />
    <line y1="19.00" style="stroke:rgb(169,169,169);fill:none;stroke-linecap:butt;stroke-miterlimit:9;opacity:1;stroke-width:1;stroke-linejoin:miter;" id="4" x2="320.00" y2="19.00" x1="278.00" />
    <line y1="99.00" style="stroke:rgb(169,169,169);fill:none;stroke-linecap:butt;stroke-miterlimit:9;opacity:1;stroke-width:1;stroke-linejoin:miter;" id="5" x2="320.00" y2="99.00" x1="278.00" />
    <line y1="19.00" style="stroke:rgb(169,169,169);fill:none;stroke-linecap:butt;stroke-miterlimit:9;opacity:1;stroke-width:1;stroke-linejoin:miter;" id="6" x2="240.00" y2="19.00" x1="198.00" />
    <line y1="99.00" style="stroke:rgb(169,169,169);fill:none;stroke-linecap:butt;stroke-miterlimit:9;opacity:1;stroke-width:1;stroke-linejoin:miter;" id="7" x2="240.00" y2="99.00" x1="198.00" />
    <line y1="19.00" style="stroke:rgb(169,169,169);fill:none;stroke-linecap:butt;stroke-miterlimit:9;opacity:1;stroke-width:1;stroke-linejoin:miter;" id="8" x2="160.00" y2="19.00" x1="118.00" />
    <line y1="99.00" style="stroke:rgb(169,169,169);fill:none;stroke-linecap:butt;stroke-miterlimit:9;opacity:1;stroke-width:1;stroke-linejoin:miter;" id="9" x2="160.00" y2="99.00" x1="118.00" />
    <line y1="19.00" style="stroke:rgb(169,169,169);fill:none;stroke-linecap:butt;stroke-miterlimit:9;opacity:1;stroke-width:1;stroke-linejoin:miter;" id="10" x2="80.00" y2="19.00" x1="38.00" />
    <line y1="19.00" style="stroke:rgb(169,169,169);fill:none;stroke-linecap:butt;stroke-miterlimit:9;opacity:1;stroke-width:1;stroke-linejoin:miter;" id="11" x2="80.00" y2="99.00" x1="38.00" />
    <ellipse id="44" cy="15.00" cx="15.00" transform="matrix(1.00 0.00 0.00 1.00 404.00 4.00 ) " rx="15.00" ry="15.00" style="stroke:none;opacity:1;fill:rgb(68,154,223);" />
    <path d="M 19.156 13.888 19.156 10.3647 19.156 6.841399 25.2585 10.3647 22.2072 12.1264 z " style="stroke:none;fill-rule:evenodd;opacity:1;fill:rgb(255,255,255);" transform="matrix(1.00 0.00 0.00 1.00 404.00 4.00 ) " id="49" />
    <path d="M 19.156 22.97 19.156 19.4467 19.156 15.9234 25.2585 19.4467 22.2072 21.2084 z " style="stroke:none;fill-rule:evenodd;opacity:1;fill:rgb(255,255,255);" transform="matrix(1.00 0.00 0.00 1.00 404.00 4.00 ) " id="50" />
    <path d="M 5.5001 19.484 10.6493 19.484 16.2743 10.2485 19.3728 10.2485 M 14.6769 17.1481 16.3089 19.4828 19.2202 19.4828 M 5.500199 10.2437 10.7586 10.2437 12.1652 12.8707 " style="stroke:rgb(255,255,255);fill:none;stroke-linecap:butt;stroke-miterlimit:9;opacity:1;stroke-width:2;stroke-linejoin:miter;" transform="matrix(1.00 0.00 0.00 1.00 404.00 4.00 ) " id="51" />
    <text id="52" transform="matrix(1.00 0.00 0.00 1.00 0.00 0.00 ) " x="404.00px" y="39.00px" style="stroke:none;clip-path:url(#54_text_clipper);font-family:Microsoft Sans Serif;font-size:8.25pt;opacity:1;">
      <tspan dy="8.25pt" id="56">Clock</tspan>
    </text>
    <ellipse id="58" cy="15.00" cx="15.00" transform="matrix(1.00 0.00 0.00 1.00 404.00 84.00 ) " rx="15.00" ry="15.00" style="stroke:none;opacity:1;fill:rgb(68,154,223);" />
    <path d="M 20.824 23.115 20.824 7.098999 M 17.3572 17.48 17.3572 12.7339 M 13.8904 21.2046 13.8904 9.009602 M 10.4236 18.6248 10.4236 11.5896 M 6.9568 16.3923 6.9568 13.822 " style="stroke:rgb(255,255,255);fill:none;stroke-linecap:butt;stroke-miterlimit:9;opacity:1;stroke-width:2;stroke-linejoin:miter;" transform="matrix(1.00 0.00 0.00 1.00 404.00 84.00 ) " id="61" />
    <text id="62" transform="matrix(1.00 0.00 0.00 1.00 0.00 0.00 ) " x="404.00px" y="119.00px" style="stroke:none;clip-path:url(#64_text_clipper);font-family:Microsoft Sans Serif;font-size:8.25pt;opacity:1;">
      <tspan dy="8.25pt" id="66">Frequency</tspan>
    </text>
    <text id="68" transform="matrix(1.00 0.00 0.00 1.00 0.00 0.00 ) " x="404.00px" y="131.45px" style="stroke:none;clip-path:url(#70_text_clipper);font-family:Microsoft Sans Serif;font-size:8.25pt;opacity:1;">
      <tspan dy="8.25pt" id="72">Filter</tspan>
    </text>
    <line y1="19.00" style="stroke:rgb(169,169,169);fill:none;stroke-linecap:butt;stroke-miterlimit:9;opacity:1;stroke-width:1;stroke-linejoin:miter;" id="74" x2="358.00" y2="19.00" x1="320.00" />
    <ellipse id="75" cy="15.00" cx="15.00" transform="matrix(1.00 0.00 0.00 1.00 324.00 84.00 ) " rx="15.00" ry="15.00" style="stroke:none;opacity:1;fill:rgb(68,154,223);" />
    <path d="M 20.824 23.115 20.824 7.098999 M 17.3572 17.48 17.3572 12.7339 M 13.8904 21.2046 13.8904 9.009602 M 10.4236 18.6248 10.4236 11.5896 M 6.9568 16.3923 6.9568 13.822 " style="stroke:rgb(255,255,255);fill:none;stroke-linecap:butt;stroke-miterlimit:9;opacity:1;stroke-width:2;stroke-linejoin:miter;" transform="matrix(1.00 0.00 0.00 1.00 324.00 84.00 ) " id="76" />
    <text id="77" transform="matrix(1.00 0.00 0.00 1.00 0.00 0.00 ) " x="324.00px" y="119.00px" style="stroke:none;clip-path:url(#79_text_clipper);font-family:Microsoft Sans Serif;font-size:8.25pt;opacity:1;">
      <tspan dy="8.25pt" id="81">ConvertScale</tspan>
    </text>
    <line y1="19.00" style="stroke:rgb(169,169,169);fill:none;stroke-linecap:butt;stroke-miterlimit:9;opacity:1;stroke-width:1;stroke-linejoin:miter;" id="83" x2="278.00" y2="19.00" x1="240.00" />
    <ellipse id="84" cy="15.00" cx="15.00" transform="matrix(1.00 0.00 0.00 1.00 244.00 84.00 ) " rx="15.00" ry="15.00" style="stroke:none;opacity:1;fill:rgb(68,154,223);" />
    <path d="M 20.824 23.115 20.824 7.098999 M 17.3572 17.48 17.3572 12.7339 M 13.8904 21.2046 13.8904 9.009602 M 10.4236 18.6248 10.4236 11.5896 M 6.9568 16.3923 6.9568 13.822 " style="stroke:rgb(255,255,255);fill:none;stroke-linecap:butt;stroke-miterlimit:9;opacity:1;stroke-width:2;stroke-linejoin:miter;" transform="matrix(1.00 0.00 0.00 1.00 244.00 84.00 ) " id="85" />
    <text id="86" transform="matrix(1.00 0.00 0.00 1.00 0.00 0.00 ) " x="244.00px" y="119.00px" style="stroke:none;clip-path:url(#88_text_clipper);font-family:Microsoft Sans Serif;font-size:8.25pt;opacity:1;">
      <tspan dy="8.25pt" id="90">ConvertScale</tspan>
    </text>
    <line y1="19.00" style="stroke:rgb(169,169,169);fill:none;stroke-linecap:butt;stroke-miterlimit:9;opacity:1;stroke-width:1;stroke-linejoin:miter;" id="92" x2="198.00" y2="19.00" x1="160.00" />
    <ellipse id="93" cy="15.00" cx="15.00" transform="matrix(1.00 0.00 0.00 1.00 164.00 84.00 ) " rx="15.00" ry="15.00" style="stroke:none;opacity:1;fill:rgb(68,154,223);" />
    <path d="M 20.824 23.115 20.824 7.098999 M 17.3572 17.48 17.3572 12.7339 M 13.8904 21.2046 13.8904 9.009602 M 10.4236 18.6248 10.4236 11.5896 M 6.9568 16.3923 6.9568 13.822 " style="stroke:rgb(255,255,255);fill:none;stroke-linecap:butt;stroke-miterlimit:9;opacity:1;stroke-width:2;stroke-linejoin:miter;" transform="matrix(1.00 0.00 0.00 1.00 164.00 84.00 ) " id="94" />
    <text id="95" transform="matrix(1.00 0.00 0.00 1.00 0.00 0.00 ) " x="164.00px" y="119.00px" style="stroke:none;clip-path:url(#97_text_clipper);font-family:Microsoft Sans Serif;font-size:8.25pt;opacity:1;">
      <tspan dy="8.25pt" id="99">Select</tspan>
    </text>
    <text id="101" transform="matrix(1.00 0.00 0.00 1.00 0.00 0.00 ) " x="164.00px" y="131.45px" style="stroke:none;clip-path:url(#103_text_clipper);font-family:Microsoft Sans Serif;font-size:8.25pt;opacity:1;">
      <tspan dy="8.25pt" id="105">Channels</tspan>
    </text>
    <line y1="19.00" style="stroke:rgb(169,169,169);fill:none;stroke-linecap:butt;stroke-miterlimit:9;opacity:1;stroke-width:1;stroke-linejoin:miter;" id="107" x2="118.00" y2="19.00" x1="80.00" />
    <ellipse id="108" cy="15.00" cx="15.00" transform="matrix(1.00 0.00 0.00 1.00 84.00 84.00 ) " rx="15.00" ry="15.00" style="stroke:none;opacity:1;fill:rgb(68,154,223);" />
    <path d="M 19.156 13.888 19.156 10.3647 19.156 6.841399 25.2585 10.3647 22.2072 12.1264 z " style="stroke:none;fill-rule:evenodd;opacity:1;fill:rgb(255,255,255);" transform="matrix(1.00 0.00 0.00 1.00 84.00 84.00 ) " id="109" />
    <path d="M 19.156 22.97 19.156 19.4467 19.156 15.9234 25.2585 19.4467 22.2072 21.2084 z " style="stroke:none;fill-rule:evenodd;opacity:1;fill:rgb(255,255,255);" transform="matrix(1.00 0.00 0.00 1.00 84.00 84.00 ) " id="110" />
    <path d="M 5.5001 19.484 10.6493 19.484 16.2743 10.2485 19.3728 10.2485 M 14.6769 17.1481 16.3089 19.4828 19.2202 19.4828 M 5.500199 10.2437 10.7586 10.2437 12.1652 12.8707 " style="stroke:rgb(255,255,255);fill:none;stroke-linecap:butt;stroke-miterlimit:9;opacity:1;stroke-width:2;stroke-linejoin:miter;" transform="matrix(1.00 0.00 0.00 1.00 84.00 84.00 ) " id="111" />
    <text id="112" transform="matrix(1.00 0.00 0.00 1.00 0.00 0.00 ) " x="84.00px" y="119.00px" style="stroke:none;clip-path:url(#114_text_clipper);font-family:Microsoft Sans Serif;font-size:8.25pt;opacity:1;">
      <tspan dy="8.25pt" id="116">AmplifierData</tspan>
    </text>
    <path transform="matrix(1.00 0.00 0.00 1.00 4.00 4.00 ) " id="121" d="M 31.179 5.2 C 34.9985 11.0918 34.9814 18.682 31.13552 24.557 " style="stroke:rgb(169,169,169);fill:none;stroke-linecap:butt;stroke-miterlimit:9;opacity:1;stroke-width:2;stroke-linejoin:miter;" />
    <ellipse id="122" cy="15.00" cx="15.00" transform="matrix(1.00 0.00 0.00 1.00 4.00 4.00 ) " rx="15.00" ry="15.00" style="stroke:none;opacity:1;fill:rgb(91,178,126);" />
    <text id="124" transform="matrix(1.00 0.00 0.00 1.00 0.00 0.00 ) " x="4.00px" y="39.00px" style="stroke:none;clip-path:url(#126_text_clipper);font-family:Microsoft Sans Serif;font-size:8.25pt;opacity:1;">
      <tspan dy="8.25pt" id="128">Rhd2164Data</tspan>
    </text>
  </g>
  <defs id="clips_hatches_and_gradients">
    <clipPath id="54_text_clipper">
      <rect x="404.00" y="39.00" width="32.06" height="13.83" id="55" />
    </clipPath>
    <clipPath id="64_text_clipper">
      <rect x="404.00" y="119.00" width="57.19" height="27.65" id="65" />
    </clipPath>
    <clipPath id="70_text_clipper">
      <rect x="404.00" y="131.45" width="57.19" height="27.65" id="71" />
    </clipPath>
    <clipPath id="79_text_clipper">
      <rect x="324.00" y="119.00" width="71.74" height="13.83" id="80" />
    </clipPath>
    <clipPath id="88_text_clipper">
      <rect x="244.00" y="119.00" width="71.74" height="13.83" id="89" />
    </clipPath>
    <clipPath id="97_text_clipper">
      <rect x="164.00" y="119.00" width="51.60" height="27.65" id="98" />
    </clipPath>
    <clipPath id="103_text_clipper">
      <rect x="164.00" y="131.45" width="51.60" height="27.65" id="104" />
    </clipPath>
    <clipPath id="114_text_clipper">
      <rect x="84.00" y="119.00" width="71.86" height="13.83" id="115" />
    </clipPath>
    <clipPath id="126_text_clipper">
      <rect x="4.00" y="39.00" width="73.58" height="13.83" id="127" />
    </clipPath>
  </defs>
</svg>